External Loads File
version=1
nRows=71
nColumns=13
Range=5.000000e-03-10 seconds
endheader
time 	forceRightX 	forceRightY 	forceRightZ 	pointRightX 	pointRightY 	pointRightZ 	forceLeftX 	forceLeftY 	forceLeftZ 	pointLeftX 	pointLeftY 	pointLeftZ 		
0.005000 39.442547 -97.715438 -0.000000 0.306012 0.350847 -0.104284 6.488149 289.830946 -0.000000 0.002588 0.289725 -0.340542
0.010000 39.072140 -97.236396 -0.000000 0.306010 0.350878 -0.104297 7.509359 289.952452 -0.000000 0.002591 0.289695 -0.340553
0.015000 38.756638 -96.752279 -0.000000 0.306016 0.350917 -0.104300 8.327311 290.055291 -0.000000 0.002930 0.289660 -0.340619
0.020000 38.445848 -96.304911 -0.000000 0.306015 0.350962 -0.104296 9.092842 290.130677 -0.000000 0.002562 0.289637 -0.342853
0.025000 38.535040 -95.752628 -0.000000 0.305978 0.351078 -0.104241 8.633928 290.219061 -0.000000 0.002910 0.288730 -0.342971
0.030000 38.398869 -95.355329 -0.000000 0.305951 0.351143 -0.104223 8.859705 290.266403 -0.000000 0.002744 0.288536 -0.342805
0.035000 38.298813 -95.011581 -0.000000 0.305920 0.351205 -0.104206 9.003281 290.300456 -0.000000 0.002738 0.288426 -0.342741
0.040000 38.241616 -94.718940 -0.000000 0.305895 0.351274 -0.104197 9.073102 290.329037 -0.000000 0.002736 0.288335 -0.342697
0.045000 38.217075 -94.480909 -0.000000 0.305868 0.351326 -0.104180 9.123810 290.360140 -0.000000 0.002729 0.288245 -0.342658
0.050000 38.223628 -94.296088 -0.000000 0.305833 0.351398 -0.104169 9.157931 290.399175 -0.000000 0.002724 0.288174 -0.342633
0.055000 38.250591 -94.163714 -0.000000 0.305808 0.351480 -0.104175 9.183833 290.443988 -0.000000 0.002704 0.288113 -0.342596
0.060000 38.295593 -94.077143 -0.000000 0.305773 0.351552 -0.104168 9.189178 290.490113 -0.000000 0.002690 0.288042 -0.342526
0.065000 38.336970 -94.035541 -0.000000 0.305755 0.351605 -0.104163 9.241699 290.533738 -0.000000 0.002657 0.287998 -0.342519
0.070000 38.393608 -94.018379 -0.000000 0.305743 0.351671 -0.104169 9.293353 290.578176 -0.000000 0.002635 0.287943 -0.342494
0.075000 38.446412 -94.019472 -0.000000 0.305732 0.351728 -0.104174 9.402573 290.623225 -0.000000 0.002593 0.287894 -0.342454
0.080000 38.488222 -94.031245 -0.000000 0.305716 0.351779 -0.104156 9.572145 290.667644 -0.000000 0.002560 0.287867 -0.342427
0.085000 38.516410 -94.049772 -0.000000 0.305722 0.351820 -0.104156 9.785693 290.705855 -0.000000 0.002523 0.287850 -0.342397
0.090000 38.547096 -94.068200 -0.000000 0.305724 0.351863 -0.104156 9.980030 290.728646 -0.000000 0.002480 0.287810 -0.342387
0.095000 38.578363 -94.088499 -0.000000 0.305728 0.351918 -0.104152 10.151000 290.723466 -0.000000 0.002464 0.287782 -0.342350
0.100000 38.599168 -94.113497 -0.000000 0.305728 0.351952 -0.104164 10.305405 290.680765 -0.000000 0.002441 0.287770 -0.342328
0.105000 38.625614 -94.130756 -0.000000 0.305719 0.351972 -0.104154 10.352962 290.601166 -0.000000 0.002414 0.287739 -0.342334
0.110000 38.656914 -94.132129 -0.000000 0.305729 0.351999 -0.104155 10.274459 290.492071 -0.000000 0.002408 0.287711 -0.342321
0.115000 38.684789 -94.112294 -0.000000 0.305698 0.352024 -0.104150 10.114163 290.367456 -0.000000 0.002397 0.287706 -0.342283
0.120000 38.709576 -94.066643 -0.000000 0.305687 0.352035 -0.104149 9.915510 290.244943 -0.000000 0.002398 0.287692 -0.342287
0.125000 38.753623 -93.990738 -0.000000 0.305684 0.352095 -0.104145 9.643090 290.142023 -0.000000 0.002414 0.287657 -0.342298
0.130000 38.764336 -93.919829 -0.000000 0.305661 0.352099 -0.104146 9.458636 290.061747 -0.000000 0.002421 0.287654 -0.342309
0.135000 38.773838 -93.856207 -0.000000 0.305646 0.352113 -0.104149 9.244763 290.005528 -0.000000 0.002440 0.287637 -0.342296
0.140000 38.778725 -93.811623 -0.000000 0.305642 0.352136 -0.104124 9.007366 289.961334 -0.000000 0.002469 0.287622 -0.342322
0.145000 38.777258 -93.790103 -0.000000 0.305616 0.352136 -0.104125 8.766564 289.913427 -0.000000 0.002503 0.287604 -0.342330
0.150000 38.799515 -93.777696 -0.000000 0.305601 0.352166 -0.104123 8.456627 289.853890 -0.000000 0.002538 0.287552 -0.342336
0.155000 38.810430 -93.784833 -0.000000 0.305586 0.352181 -0.104130 8.222108 289.781923 -0.000000 0.002577 0.287549 -0.342338
0.160000 38.839593 -93.794690 -0.000000 0.305566 0.352208 -0.104118 7.997727 289.713984 -0.000000 0.002615 0.287527 -0.342347
0.165000 38.890650 -93.802004 -0.000000 0.305541 0.352250 -0.104117 7.768911 289.663945 -0.000000 0.002661 0.287468 -0.342367
0.170000 38.926022 -93.817505 -0.000000 0.305523 0.352276 -0.104119 7.631343 289.634669 -0.000000 0.002705 0.287437 -0.342380
0.175000 38.955214 -93.830243 -0.000000 0.305494 0.352301 -0.104119 7.541285 289.623854 -0.000000 0.002733 0.287405 -0.342384
0.180000 38.984792 -93.831960 -0.000000 0.305471 0.352338 -0.104104 7.468540 289.619063 -0.000000 0.002780 0.287356 -0.342372
0.185000 38.988703 -93.832345 -0.000000 0.305449 0.352351 -0.104109 7.477467 289.599824 -0.000000 0.002805 0.287327 -0.342402
0.190000 38.979542 -93.828004 -0.000000 0.305430 0.352366 -0.104098 7.517486 289.552485 -0.000000 0.002813 0.287309 -0.342388
0.195000 38.974166 -93.813236 -0.000000 0.305412 0.352375 -0.104105 7.541892 289.472452 -0.000000 0.002828 0.287250 -0.342394
0.200000 38.947102 -93.797506 -0.000000 0.305406 0.352392 -0.104117 7.637120 289.358465 -0.000000 0.002830 0.287248 -0.342381
0.205000 38.925385 -93.768311 -0.000000 0.305399 0.352411 -0.104107 7.713137 289.217185 -0.000000 0.002831 0.287229 -0.342375
0.210000 38.906436 -93.728601 -0.000000 0.305381 0.352433 -0.104124 7.762695 289.057380 -0.000000 0.002818 0.287218 -0.342374
0.215000 38.884621 -93.686999 -0.000000 0.305383 0.352431 -0.104124 7.788738 288.891906 -0.000000 0.002812 0.287219 -0.342367
0.220000 38.893444 -93.639529 -0.000000 0.305370 0.352450 -0.104123 7.679576 288.735353 -0.000000 0.002794 0.287185 -0.342358
0.225000 38.920552 -93.600589 -0.000000 0.305353 0.352484 -0.104113 7.480353 288.593469 -0.000000 0.002781 0.287158 -0.342365
0.230000 38.957010 -93.577297 -0.000000 0.305333 0.352502 -0.104118 7.236578 288.470740 -0.000000 0.002771 0.287129 -0.342351
0.235000 39.014086 -93.562316 -0.000000 0.305303 0.352543 -0.104128 6.920580 288.372097 -0.000000 0.002755 0.287083 -0.342346
0.240000 39.081677 -93.553275 -0.000000 0.305279 0.352589 -0.104128 6.553124 288.295210 -0.000000 0.002746 0.287008 -0.342350
0.245000 39.145361 -93.546410 -0.000000 0.305259 0.352639 -0.104133 6.170670 288.233196 -0.000000 0.002739 0.286926 -0.342330
0.250000 39.218883 -93.525506 -0.000000 0.305212 0.352691 -0.104132 5.748020 288.183437 -0.000000 0.002740 0.286788 -0.342344
0.255000 39.270443 -93.496312 -0.000000 0.305170 0.352775 -0.104130 5.430000 288.144651 -0.000000 0.002723 0.286714 -0.342315
0.260000 39.325146 -93.445297 -0.000000 0.305128 0.352862 -0.104139 5.198704 288.117785 -0.000000 0.002711 0.286608 -0.342307
0.265000 39.376922 -93.378016 -0.000000 0.305073 0.352937 -0.104143 5.116009 288.094384 -0.000000 0.002705 0.286491 -0.342307
0.270000 39.431253 -93.301372 -0.000000 0.305032 0.353050 -0.104151 5.168949 288.060095 -0.000000 0.002690 0.286402 -0.342294
0.275000 39.479968 -93.230300 -0.000000 0.305006 0.353124 -0.104137 5.346911 288.000974 -0.000000 0.002676 0.286296 -0.342290
0.280000 39.533121 -93.169694 -0.000000 0.304975 0.353235 -0.104127 5.569162 287.912353 -0.000000 0.002671 0.286222 -0.342285
0.285000 39.589844 -93.124653 -0.000000 0.304957 0.353342 -0.104122 5.803600 287.798077 -0.000000 0.002656 0.286134 -0.342271
0.290000 39.655346 -93.091488 -0.000000 0.304934 0.353456 -0.104133 6.010956 287.666636 -0.000000 0.002660 0.286048 -0.342287
0.295000 39.715078 -93.069179 -0.000000 0.304898 0.353566 -0.104132 6.203938 287.524876 -0.000000 0.002652 0.285987 -0.342278
0.300000 39.772625 -93.047875 -0.000000 0.304865 0.353652 -0.104122 6.333026 287.379439 -0.000000 0.002655 0.285906 -0.342245
0.305000 39.833271 -93.019194 -0.000000 0.304847 0.353763 -0.104126 6.351741 287.234913 -0.000000 0.002656 0.285822 -0.342232
0.310000 39.880714 -92.987073 -0.000000 0.304868 0.353852 -0.104076 6.293577 287.090604 -0.000000 0.002655 0.285740 -0.342195
0.315000 39.934437 -92.944699 -0.000000 0.304841 0.353938 -0.104078 6.101742 286.943628 -0.000000 0.002666 0.285653 -0.342205
0.320000 39.994261 -92.897042 -0.000000 0.304816 0.354030 -0.104074 5.800998 286.784798 -0.000000 0.002674 0.285575 -0.342204
0.325000 40.067846 -92.845200 -0.000000 0.304789 0.354143 -0.104072 5.396346 286.604988 -0.000000 0.002671 0.285503 -0.342192
0.330000 40.153258 -92.794509 -0.000000 0.304778 0.354234 -0.104088 4.914565 286.402860 -0.000000 0.002680 0.285396 -0.342199
0.335000 40.217040 -92.766909 -0.000000 0.304757 0.354310 -0.104086 4.478689 286.185508 -0.000000 0.002665 0.285349 -0.342191
0.340000 40.293515 -92.755456 -0.000000 0.304730 0.354387 -0.104069 4.014241 285.964939 -0.000000 0.002679 0.285263 -0.342179
0.345000 40.353851 -92.775938 -0.000000 0.304718 0.354455 -0.104071 3.647149 285.743449 -0.000000 0.002656 0.285187 -0.342159
0.350000 40.387951 -92.829022 -0.000000 0.304689 0.354517 -0.104078 3.424893 285.517660 -0.000000 0.002646 0.285165 -0.342157
0.355000 40.412795 -92.896814 -0.000000 0.304681 0.354577 -0.104080 3.280558 285.283851 -0.000000 0.002622 0.285125 -0.342137
